<svg id="Layer_1" data-name="Layer 1" xmlns="http://www.w3.org/2000/svg" viewBox="0 0 551.49 439.66"><defs><style>.cls-1{fill:#fef804;}.cls-2{fill:#f98425;}</style></defs><polygon class="cls-1" points="110.3 8.43 248.17 8.43 248.17 51.32 296.43 51.32 296.43 238.21 389.87 238.21 389.87 193.79 480.25 193.79 480.25 144.77 527.75 144.77 527.75 377.62 481.02 377.62 481.02 425.11 157.02 425.11 157.02 379.92 110.3 379.92 110.3 239.75 62.81 239.75 62.81 193.79 16.85 193.79 16.85 146.3 63.57 146.3 63.57 50.55 111.83 50.55 110.3 8.43"/><rect x="201.7" y="99.06" width="46.72" height="46.72"/><rect class="cls-2" x="63.57" y="99.06" width="92.81" height="92.81"/><rect class="cls-2" x="15.83" y="144.13" width="47.74" height="47.74"/></svg>